<?xml version="1.0" standalone="no"?>
<!DOCTYPE svg PUBLIC "-//W3C//DTD SVG 20010904//EN"
 "http://www.w3.org/TR/2001/REC-SVG-20010904/DTD/svg10.dtd">
<svg version="1.0" xmlns="http://www.w3.org/2000/svg"
 width="300.000000pt" height="300.000000pt" viewBox="0 0 300.000000 300.000000"
 preserveAspectRatio="xMidYMid meet">
<metadata>
Created by potrace 1.14, written by Peter Selinger 2001-2017
</metadata>
<g transform="translate(0.000000,300.000000) scale(0.100000,-0.100000)"
fill="#000000" stroke="none">
<path d="M797 2969 c-46 -27 -43 -100 6 -129 24 -15 50 -61 138 -251 60 -128
109 -233 109 -234 0 -1 -29 -5 -65 -8 -111 -11 -189 -60 -232 -146 -16 -33
-18 -72 -18 -461 l0 -425 28 -48 c31 -52 95 -100 157 -117 48 -14 1113 -13
1162 0 63 18 130 70 158 125 l25 49 0 421 c0 384 -2 423 -18 456 -42 85 -119
134 -226 145 -34 4 -61 9 -61 11 0 3 48 108 106 234 86 184 113 234 140 254
44 34 47 83 8 114 -34 26 -54 26 -88 0 -22 -17 -26 -28 -25 -67 1 -40 -16 -83
-114 -292 l-116 -245 -367 0 -368 0 -117 250 c-101 216 -117 255 -112 287 9
63 -56 108 -110 77z m439 -947 c93 -75 23 -222 -91 -190 -51 14 -80 52 -80
104 0 39 5 50 33 75 38 34 103 40 138 11z m666 -11 c28 -25 33 -36 33 -75 0
-38 -5 -51 -31 -76 -69 -69 -184 -21 -184 76 0 93 111 139 182 75z m66 -543
l-3 -73 -465 0 -465 0 -3 73 -3 72 471 0 471 0 -3 -72z"/>
<path d="M761 1006 c-19 -7 -36 -17 -38 -22 -2 -6 28 -23 66 -39 l70 -28 6
-46 c3 -25 8 -55 10 -66 2 -14 -9 -29 -41 -53 -24 -18 -50 -35 -57 -38 -7 -2
-44 9 -82 26 -37 17 -70 28 -73 25 -3 -3 8 -31 24 -62 38 -74 100 -115 182
-121 49 -3 65 1 115 27 l57 30 138 -59 137 -59 -35 -15 c-19 -8 -82 -35 -140
-59 -88 -38 -107 -43 -120 -32 -57 49 -162 60 -238 24 -58 -29 -132 -133 -109
-155 3 -3 36 8 74 24 l70 30 52 -41 51 -40 -6 -51 c-8 -75 -7 -74 -86 -110
l-73 -33 35 -18 c23 -13 56 -19 95 -20 106 0 196 73 213 175 l7 43 209 89
c115 48 216 88 224 88 9 0 110 -39 224 -87 207 -88 208 -88 214 -123 19 -100
91 -170 191 -186 42 -6 107 7 137 29 16 12 11 16 -51 42 -37 15 -71 31 -74 34
-4 3 -10 34 -14 67 l-7 62 53 40 52 40 69 -31 c37 -16 71 -27 74 -24 12 11
-17 74 -48 106 -74 75 -182 94 -267 46 -23 -14 -49 -25 -56 -25 -15 0 -246 97
-257 108 -4 4 54 33 129 65 135 56 136 57 162 38 91 -63 202 -53 282 28 54 53
74 111 65 181 -25 179 -256 254 -378 124 -31 -33 -58 -92 -58 -127 0 -22 -20
-33 -207 -112 -115 -48 -215 -90 -224 -92 -9 -3 -113 36 -230 86 l-214 91 -13
52 c-30 130 -164 200 -291 154z m1457 -93 c12 -3 22 -9 22 -14 0 -5 8 -17 18
-27 21 -21 36 -89 21 -97 -5 -4 -9 -14 -9 -23 0 -21 -66 -76 -84 -69 -7 3 -18
2 -25 -3 -17 -10 -74 19 -99 50 -36 46 -28 140 14 159 13 6 24 15 24 20 0 11
57 20 80 13 8 -2 25 -7 38 -9z"/>
</g>
</svg>
